PathFileType  4	(X/Y/Z) C:\Users\antoi\Documents\MyRepositories\mobilecap\ResultsAnalysis
DataRate	CameraRate	NumFrames	NumMarkers	Units	OrigDataRate	OrigDataStartFrame	OrigNumFrames
100.0	100.0	6	51	mm	100.0	489	1302
Frame#	Time	r_knee			r_shank_antsup			r_ankle			r_calc			r_5meta			r_toe			L_knee			L_shank_antsup			L_ankle			L_calc			L_5meta			L_toe			r_sh2			r_sh3			r_sh4			L_sh2			L_sh3			r_thigh1			r_thigh2			r_thigh3			r_thigh4			r_thigh5			L_thigh1			L_thigh2			L_thigh3			L_thigh4			r.ASIS			r.PSIS			L.ASIS			L.PSIS			C7			R_Shoulder			L_Shoulder			R_Sternum			L_Sternum			R_humerus			R_elbow_med			R_elbow_lat			R_forearm			R_wrist_radius			R_wrist_ulna			L_humerus			L_elbow_med			L_elbow_lat			L_forearm			L_wrist_radius			L_wrist_ulna			R_HJC			L_HJC			R_HJC_reg			L_HJC_reg			
		X1	Y1	Z1	X2	Y2	Z2	X3	Y3	Z3	X4	Y4	Z4	X5	Y5	Z5	X6	Y6	Z6	X7	Y7	Z7	X8	Y8	Z8	X9	Y9	Z9	X10	Y10	Z10	X11	Y11	Z11	X12	Y12	Z12	X13	Y13	Z13	X14	Y14	Z14	X15	Y15	Z15	X16	Y16	Z16	X17	Y17	Z17	X18	Y18	Z18	X19	Y19	Z19	X20	Y20	Z20	X21	Y21	Z21	X22	Y22	Z22	X23	Y23	Z23	X24	Y24	Z24	X25	Y25	Z25	X26	Y26	Z26	X27	Y27	Z27	X28	Y28	Z28	X29	Y29	Z29	X30	Y30	Z30	X31	Y31	Z31	X32	Y32	Z32	X33	Y33	Z33	X34	Y34	Z34	X35	Y35	Z35	X36	Y36	Z36	X37	Y37	Z37	X38	Y38	Z38	X39	Y39	Z39	X40	Y40	Z40	X41	Y41	Z41	X42	Y42	Z42	X43	Y43	Z43	X44	Y44	Z44	X45	Y45	Z45	X46	Y46	Z46	X47	Y47	Z47	X48	Y48	Z48	X49	Y49	Z49	X50	Y50	Z50	X51	Y51	Z51	

489	4.88000000	-263.01376	508.49291	-480.07150	-227.07684	447.41610	-479.88618	-271.57697	102.15792	-429.00059	-334.80733	64.77818	-465.65368	-166.95779	43.20903	-387.62147	-117.65154	69.52135	-440.63904	-244.78587	503.86587	-882.74206	-217.27588	418.20813	-903.86474	-267.75225	102.92752	-920.89796	-328.44089	63.12675	-873.97905	-163.93371	41.22236	-972.33579	-119.37228	62.94393	-919.15860	-245.19003	338.60041	-439.72460	-308.63430	459.33383	-462.06988	-317.32085	344.91666	-440.59889	-306.25429	426.00419	-898.19136	-305.76942	305.13032	-921.59081	-167.12173	815.45597	-491.22157	-184.96910	706.32461	-481.74091	-246.21920	694.25503	-457.22990	-280.49457	830.91894	-489.43289	-293.42943	714.47232	-478.81041	-199.62033	773.53000	-900.47281	-197.95774	636.62254	-894.28624	-305.48792	774.18605	-851.84819	-300.86271	633.50726	-859.04102	-129.22748	971.97356	-557.45974	-307.84593	1026.76118	-643.06084	-118.27191	952.76313	-808.57668	-309.86157	1027.28010	-744.19327	-247.01784	1434.01936	-707.48215	-172.74947	1410.08701	-537.93694	-181.30526	1420.40261	-868.15897	-105.71671	1390.82242	-680.58597	-101.04282	1390.20365	-723.78845	-178.84361	1311.56633	-439.51904	-218.49973	1099.23936	-395.61525	-204.31664	1146.21719	-334.15216	-72.35496	1156.83064	-379.35717	44.68994	1157.32567	-432.11355	59.13589	1130.47260	-413.07592	-173.38720	1330.86955	-954.81173	-198.32696	1093.29439	-977.34714	-190.33376	1144.33887	-1044.49984	-84.34970	1158.23512	-1011.06000	57.31678	1156.04334	-974.14431	65.30862	1131.71857	-997.23504	-211.96975	899.61160	-580.68145	-205.62156	890.05830	-786.83342	-201.85557	895.93622	-591.29385	-205.17099	896.78968	-757.63734	
490	4.89000000	-262.42653	508.47011	-480.08085	-226.58213	447.02402	-479.92007	-271.48795	102.18677	-429.03900	-334.76461	64.88946	-465.67007	-166.96275	43.29676	-387.50351	-117.60863	69.46119	-440.62539	-244.16962	503.78590	-882.55485	-216.94020	418.23957	-903.84127	-267.66550	102.95850	-920.88191	-328.42379	63.12197	-873.99550	-163.92907	41.21267	-972.34431	-119.34021	62.91325	-919.16722	-244.95213	338.67654	-439.58937	-308.16534	459.28504	-461.87847	-316.76753	344.94025	-440.48290	-305.78023	426.01993	-898.24478	-305.45439	305.09273	-921.63680	-166.29146	815.45108	-491.39449	-184.34504	706.26643	-481.68612	-245.40585	694.10637	-457.30181	-279.82317	830.89371	-489.21550	-292.72667	714.54336	-478.57266	-198.58397	773.39837	-900.31080	-197.04687	636.55319	-894.13839	-304.76854	774.11198	-852.34331	-300.10830	633.44978	-859.48224	-128.80236	972.05959	-557.44123	-307.57399	1026.53907	-643.07427	-117.65575	952.57771	-808.29632	-309.45565	1027.07184	-744.24619	-247.64993	1434.05047	-707.49907	-173.44851	1410.06638	-537.96826	-182.00517	1420.33643	-868.10786	-106.22982	1390.83374	-680.58575	-102.26334	1390.41260	-723.47886	-179.30914	1311.55994	-439.52087	-219.10231	1099.16493	-395.29217	-204.89418	1146.37218	-333.97327	-72.92504	1156.94379	-379.07722	44.16389	1157.41392	-431.77587	58.67331	1130.53950	-412.77826	-173.88535	1330.76369	-954.90499	-198.50661	1093.04242	-977.07410	-190.57613	1144.11567	-1044.31007	-84.60443	1158.17612	-1010.94272	57.05628	1156.19238	-974.12342	65.07409	1131.80458	-997.14578	-211.51555	899.58921	-580.52716	-205.01155	889.84080	-786.66502	-201.33009	895.78440	-591.33663	-204.42140	896.65945	-757.53120	
491	4.90000000	-261.95409	508.41515	-480.19116	-226.09347	446.58584	-479.97969	-271.43482	102.21843	-429.10869	-334.76932	64.92364	-465.67056	-166.96217	43.35217	-387.43743	-117.56497	69.43488	-440.63852	-243.61972	503.64234	-882.31851	-216.55240	418.24757	-903.71875	-267.59162	103.01263	-920.81825	-328.36366	63.17541	-873.98313	-163.92066	41.18971	-972.34877	-119.27982	62.84528	-919.17771	-244.75069	338.70614	-439.34107	-307.62879	459.52388	-461.65316	-316.39556	344.88878	-440.62539	-305.37303	425.99512	-898.21928	-305.11285	305.20814	-921.83703	-165.69162	815.33436	-491.59084	-183.84575	706.24566	-481.64029	-244.71594	694.03915	-457.28475	-279.22861	830.93755	-489.04267	-292.09714	714.48977	-478.49639	-197.64399	773.48521	-900.49443	-196.20159	636.50407	-893.98174	-303.98339	774.21021	-852.98191	-299.40254	633.43441	-859.83255	-128.46092	972.20860	-557.33519	-307.29221	1026.41444	-643.18318	-117.10571	952.46299	-808.06798	-308.94873	1026.94815	-744.23585	-248.25659	1434.09305	-707.52494	-174.10970	1410.12603	-537.91280	-182.66009	1420.27624	-868.09204	-106.72134	1390.87446	-680.58354	-102.80786	1390.60056	-723.32315	-179.80020	1311.63511	-439.59178	-219.41842	1099.15841	-395.23383	-205.37810	1146.52312	-333.81340	-73.40711	1157.11055	-378.85448	43.75196	1157.51808	-431.51679	58.28207	1130.68835	-412.40222	-174.35909	1330.66947	-955.00295	-198.62293	1092.69683	-976.80751	-190.78710	1143.80836	-1044.06033	-84.81360	1158.11892	-1010.79622	56.81734	1156.34914	-974.08751	64.88257	1131.95844	-997.05769	-211.12480	899.64014	-580.37497	-204.42614	889.70275	-786.49776	-200.96226	895.68326	-591.37620	-203.68550	896.56059	-757.51641	
492	4.91000000	-261.61548	508.44180	-480.25945	-225.82967	446.62992	-480.00705	-271.41720	102.25419	-429.13208	-334.77116	64.90281	-465.63947	-166.95607	43.33126	-387.43721	-117.54103	69.42739	-440.66833	-243.15933	503.58302	-882.22605	-216.14600	418.25050	-903.52664	-267.55949	103.10206	-920.78330	-328.28539	63.26650	-873.98874	-163.91287	41.17384	-972.35653	-119.22627	62.75625	-919.17570	-244.51092	338.67127	-439.30666	-307.20219	459.80046	-461.53084	-316.23438	344.93019	-440.90016	-305.02740	426.01911	-898.20489	-304.76319	305.40314	-922.02596	-165.31622	815.23382	-491.75876	-183.27906	706.25759	-481.71589	-244.14016	694.10188	-457.17752	-278.61958	831.04512	-488.97211	-291.53363	714.39009	-478.57599	-196.83319	773.58058	-900.75091	-195.51978	636.47883	-893.77587	-303.27287	774.35548	-853.39244	-298.74988	633.51398	-860.00302	-128.14029	972.34665	-557.24182	-306.98796	1026.30405	-643.35179	-116.62843	952.51365	-808.12042	-308.52376	1026.84002	-744.18901	-248.79499	1434.12113	-707.54720	-174.75096	1410.22765	-537.79217	-183.23148	1420.23680	-868.15719	-107.25278	1390.97806	-680.52697	-102.55367	1390.47630	-723.43074	-180.27737	1311.76861	-439.72812	-219.55931	1099.20920	-395.32268	-205.77693	1146.64862	-333.73708	-73.81711	1157.29902	-378.65859	43.41851	1157.69192	-431.22240	57.87964	1130.92346	-412.00084	-174.82927	1330.53990	-955.02518	-198.67675	1092.41373	-976.61488	-191.01666	1143.44937	-1043.78043	-85.00832	1158.04989	-1010.60435	56.63054	1156.52375	-974.03416	64.70935	1132.13417	-996.92962	-210.69664	899.66575	-580.36798	-203.88888	889.68077	-786.48496	-200.57749	895.60858	-591.39856	-203.10959	896.49217	-757.64711	
493	4.92000000	-261.36596	508.54558	-480.23062	-225.75191	447.11006	-479.98829	-271.41359	102.28152	-429.09469	-334.73403	64.90494	-465.60639	-166.94885	43.30519	-387.44414	-117.54059	69.39956	-440.66282	-242.74026	503.68287	-882.34207	-215.78432	418.26898	-903.36793	-267.53341	103.18407	-920.78795	-328.25908	63.31189	-874.02228	-163.91179	41.17293	-972.37592	-119.20080	62.67135	-919.14380	-244.26606	338.65965	-439.53687	-307.04417	459.92554	-461.49157	-316.03418	345.23568	-440.92270	-304.70293	426.07697	-898.24427	-304.45253	305.48991	-922.17472	-164.98889	815.27607	-491.83566	-182.76642	706.29039	-481.86664	-243.70146	694.17513	-457.12564	-278.06281	831.14770	-489.01004	-291.02987	714.38691	-478.67873	-196.13761	773.43597	-900.62370	-194.97819	636.52296	-893.65863	-302.63989	774.51564	-853.59660	-298.19834	633.64790	-860.07015	-127.81696	972.46962	-557.15629	-306.68754	1026.17458	-643.43558	-116.13574	952.62956	-808.26625	-308.21261	1026.72763	-744.23327	-249.25629	1434.16777	-707.52497	-175.37689	1410.34947	-537.78500	-183.72568	1420.20646	-868.28867	-107.79436	1391.05435	-680.41763	-102.52083	1390.39321	-723.52860	-180.75381	1311.88162	-439.82269	-219.84236	1099.16022	-395.41551	-206.09815	1146.79161	-333.66941	-74.16474	1157.50815	-378.48232	43.09197	1157.98857	-430.81594	57.52278	1131.22865	-411.68413	-175.25708	1330.37918	-955.02728	-198.72214	1092.26386	-976.39439	-191.22054	1143.16767	-1043.59401	-85.18826	1157.97421	-1010.36046	56.50967	1156.70835	-973.92845	64.56840	1132.31577	-996.85051	-210.24815	899.66531	-580.41857	-203.35843	889.70033	-786.53369	-200.10760	895.53098	-591.37125	-202.62551	896.44400	-757.77745	
494	4.93000000	-261.13836	508.58843	-480.22801	-225.63273	447.46231	-479.93410	-271.42172	102.29774	-429.09650	-334.70097	64.91368	-465.59245	-166.94591	43.31277	-387.43663	-117.54646	69.36310	-440.61944	-242.35667	503.81711	-882.48237	-215.49893	418.28223	-903.28558	-267.49258	103.22531	-920.78205	-328.27762	63.30940	-874.04434	-163.91089	41.15456	-972.37431	-119.18627	62.62396	-919.13823	-244.04114	338.68940	-439.70590	-307.05779	459.93154	-461.49515	-315.82429	345.60109	-440.80452	-304.39710	426.13317	-898.30345	-304.21419	305.48854	-922.29617	-164.62427	815.37428	-491.83939	-182.44196	706.31969	-481.99469	-243.45503	694.20456	-457.16566	-277.72153	831.17680	-489.10066	-290.63923	714.44194	-478.73994	-195.53695	773.18571	-900.32063	-194.50096	636.56881	-893.65458	-302.02545	774.70052	-853.81149	-297.73030	633.77551	-860.10680	-127.50510	972.62032	-557.10857	-306.40721	1026.07200	-643.46059	-115.59946	952.71159	-808.27097	-307.90176	1026.61967	-744.38295	-249.71779	1434.23972	-707.48940	-175.95970	1410.45475	-537.93143	-184.16505	1420.18534	-868.42711	-108.30063	1391.06942	-680.34835	-103.00325	1390.96748	-723.45757	-181.26466	1311.99641	-439.82215	-220.31204	1099.07217	-395.45449	-206.38227	1146.93610	-333.57521	-74.46986	1157.75685	-378.33514	42.78493	1158.34987	-430.44045	57.24715	1131.60076	-411.43028	-175.61283	1330.25158	-955.08602	-198.73002	1092.14209	-976.10948	-191.34469	1142.98047	-1043.43654	-85.31556	1157.90568	-1010.11880	56.40240	1156.89549	-973.78368	64.47389	1132.53617	-996.86461	-209.83175	899.70175	-580.42669	-202.80439	889.69772	-786.53527	-199.63973	895.52773	-591.35005	-202.10481	896.43106	-757.80198	
